<svg xmlns="http://www.w3.org/2000/svg" xmlns:xlink="http://www.w3.org/1999/xlink" viewBox="240 243 1615 1610" xml:space="preserve">
    <style>
        .prefix__st2{fill:#f2ede4;stroke:#f2ede4;stroke-width:13;stroke-miterlimit:10}.prefix__st12,.prefix__st13,.prefix__st5,.prefix__st6,.prefix__st7,.prefix__st8,.prefix__st9{fill:#a0a603;stroke:#81850b;stroke-width:13;stroke-miterlimit:10}.prefix__st12,.prefix__st13,.prefix__st6,.prefix__st7,.prefix__st8,.prefix__st9{fill:#ffdd9e;stroke:#f2c36b}.prefix__st12,.prefix__st13,.prefix__st7,.prefix__st8,.prefix__st9{fill:#d45d94;stroke:#a63c6d}.prefix__st12,.prefix__st13,.prefix__st8,.prefix__st9{fill:#252626;stroke:#000}.prefix__st12,.prefix__st13,.prefix__st9{fill:#fff;stroke:#fff;stroke-width:4}.prefix__st12,.prefix__st13{fill:#299999;stroke:#167373;stroke-width:13}.prefix__st13{fill:#32618c;stroke:#345573}
    </style>
    <path d="M438.5 1160.26c43.58-23.3 95.33-26.14 144.51-21.37s97.51 16.58 146.76 20.67c87.21 7.25 174.32-9.81 261.14-20.77 254.17-32.08 511.7-11.92 767.09 8.28 25.69 145.63 16.45 297.3-26.72 438.73-10.65 34.89-24.84 71.25-54.31 92.75-30.63 22.35-71.23 24.02-109.14 24.37-128.69 1.22-257.37-2.73-386.01-6.67-175.39-5.37-350.79-10.75-526.18-16.12-75.23-2.31-157.24-7.19-213.37-57.34-64.95-58.03-72.38-155.31-75.27-242.36-1.35-40.67-2.66-81.81 5.77-121.62 8.43-39.78 27.94-78.34 65.73-98.55z" fill="#66adad" stroke="#317d7d" stroke-width="13" stroke-miterlimit="10" id="prefix__Layer_14"/>
    <path d="M1847.17 258.87c-10.55 168.25-21.1 336.89-9.72 505.1 6.23 92.15 16.62 192.34-45.76 269.05-50.57 62.18-139.01 95.28-225.1 119.4-166.88 46.76-344.7 71.51-520.21 57.84-111.1-8.65-223.54-32.47-332.75-13.59-45.78 7.92-89.41 23.17-135.44 30.05s-97.5 4.09-133.67-20.33c-50.6-34.16-53.66-95.72-54.26-149.57-1.32-119.47-10.85-239.44 6.38-358.07s63.8-238.09 160.63-327.11c44.17-40.61 98.82-74.39 161.27-92.54 68.61-19.95 143.01-20.33 215.78-20.49 300.48-.64 600.93-1.3 912.85.26z" fill="#e6fffe" stroke="#ccede4" stroke-width="13" stroke-miterlimit="10" id="prefix__Layer_15"/>
    <g id="prefix__Layer_17">
        <path class="prefix__st2" d="M1499.9 393.97c-29.21-2.81-59.59-1.91-86.56 9.64s-50.02 35.38-54.3 64.41c-4.29 29.03 14.59 61.45 43.47 66.66 45.81 8.26 82.97-48.16 129.34-44.11-15.59 24.67-40.97 41.52-58.84 64.59-17.87 23.07-26.36 59.04-5.95 79.9 12.24 12.51 31.8 15.61 48.84 11.64 17.04-3.98 32-14.02 45.71-24.89 57.11-45.25 99.67-108.6 119.97-178.58-4.01 33.33 2.02 68.97 22.46 95.6 20.44 26.63 56.86 42.04 88.99 32.29s54.45-47.81 42.29-79.11c-17.22 87.41 25.14-5.24 13.79-180.9-1.31-20.26-36.25-20.47-56.52-19.21-20.27 1.27-40.52 13.99-46.54 33.38 14.03-4.29 20.4-22.01 16.53-36.16-3.86-14.15-12.48-35.27-27.05-33.61-119.76 13.61-164.78-42.44-225.18 11.96-19.38 17.46-35.17 39.85-40.7 65.35-5.53 25.5.42 54.18 30.25 61.15zM537.61 865.48c22.13 19.98 50.65 34.22 80.46 34.27 29.82.05 60.42-16.06 72.79-43.19 12.38-27.13 2-63.97-24.95-76.73 30.89 14.38 66.91 20.4 99.35 9.97 32.44-10.43 59.82-39.59 61.99-73.59 2.17-34-25.94-68.85-60.01-68.49 32.95 20.89 67.94 39.82 106.13 47.82 38.19 7.99 80.27 3.95 112.41-18.16s51.51-64.37 40.34-101.75c-11.17-37.38-56.83-62.57-92.32-46.36 7.41-27.13-4.6-57.18-25.57-75.93-20.97-18.75-49.47-27.33-77.54-29.05-48.38-2.97-97.67 13.63-134.39 45.27-36.72 31.63-60.44 77.93-64.66 126.22-98.89-17.45-206.16 32.78-256.09 119.91-27.57 48.11-35.39 115.4 3.91 154.52 21.68 21.58 55.43 30.12 84.76 21.47 29.34-8.69 57.16-40.85 73.39-26.2z"/>
    </g>
    <path d="M539.26 1183.47c115.86-62.46 255.48-61.72 385.63-42.1 130.15 19.62 258.19 56.5 389.73 61.09 103.97 3.63 208.12-13.17 307.52-43.84 43.16-13.31 89.81-29.26 132.19-13.64 53.62 19.76 78.17 82.48 82.76 139.45 5.56 69.06-8.69 138.16-26.56 205.1-13.38 50.13-30.34 102.19-68.45 137.41-37.55 34.71-89.86 47.7-140.12 57.11-323.99 60.66-659.15 23.73-980.86-48.09-51.42-11.48-106.31-26.03-140.19-66.38-31.39-37.38-38.09-89.79-35-138.5 5.93-93.76 23.36-209.88 93.35-247.61z" fill="#167373" stroke="#167373" stroke-width="13" stroke-miterlimit="10" id="prefix__Layer_16"/>
    <path d="M709.72 1669.19c-123.7-196.85-179.12-432.76-174.25-665.2s68.14-461.47 166.65-672.06c9.69-20.72 19.39-46.47 5.89-64.94-12.05-16.48-35.86-17.45-56.26-16.8-120.77 3.84-392.63-11.09-400.01 1.3-4.15 6.95-9.04 54.91-9 63 2.02 394.48 8.36 781.16 10.37 1175.63.32 63.53 2.88 133.19 45.08 180.67 33.8 38.03 86.15 53.28 136.35 61.59 69.79 11.56 141.22 13.14 211.45 4.66 21.11-2.55 43.74-6.82 58.36-22.25 14.62-15.43 14.66-45.57 5.37-45.6z" fill="#8c2e2e" stroke="#8c2e2e" stroke-width="13" stroke-miterlimit="10" id="prefix__Layer_4"/>
    <g id="prefix__Layer_5">
        <path class="prefix__st5" d="M305.65 248.88c31.18 30.84 43.54 77.13 40.73 120.9s-19.22 85.54-38.79 124.78c-32.82-20.25-51.14-58.5-56.43-96.7-5.29-38.2.7-76.95 6.69-115.05 1.4-8.94 3.21-18.64 10.02-24.61 10.26-8.98 26.05-5.07 37.78-9.32zM405.94 259.79c-11.52 44.29-5.89 92.82 15.47 133.3 21.36 40.48 58.24 72.52 101.3 88.01 9.79-34.98 19.66-70.51 19.61-106.84s-11.29-74.21-37.96-98.88c-26.66-24.67-70.57-32.11-98.42-15.59z"/>
        <path class="prefix__st5" d="M543.22 386.95c21.82 15.3 46.55 26.45 74.04 33.01 10.73-18.02 14.16-39.65 13.17-60.6s-6.14-41.45-11.55-61.72c-3.74-14-8.55-29.27-20.89-36.88-8.81-5.44-19.74-5.79-30.1-5.84-28.71-.13-57.43.87-86.06 3 37.38 34.42 60.22 84.12 61.39 129.03zM339.95 409.92c30.85 45.1 44.97 101.37 39.07 155.7-21.16-3.09-42.53-6.23-62.44-14.04s-38.51-20.81-48.96-39.46c-12.43-22.16-11.94-49.12-9.5-74.42 11.63 23.16 29.9 42.94 52.07 56.36 15.8-26.47 25.86-56.35 29.76-84.14z"/>
        <path class="prefix__st5" d="M333.64 559.26c6.21 47.61-4.4 97.25-29.53 138.16-32.73-15.81-51.48-52.27-55.8-88.36-4.32-36.09 3.48-72.41 11.23-107.92 16.53 29.99 46.34 52.35 79.29 59.33-.19-.18-.38-.37-5.19-1.21zM474.55 455.21c-31.88 46.59-42.02 107.42-26.98 161.83 46.71-5.54 90.83-30.37 119.8-67.42s42.42-85.87 36.53-132.53c-22.31-2.47-43.87-11.44-61.34-25.54.02 30.15-8.38 60.27-24.01 86.06-15.91-9.04-31.83-18.09-44-22.4zM348.84 383.54c25.09 13.39 52.6 22.23 80.8 25.98-32.31-36.17-43.12-90.22-27.21-136.04a228.374 228.374 0 0 1-79.55-1.77c25.81 31.89 35.75 76.02 25.96 111.83z"/>
        <path class="prefix__st5" d="M340.25 414.13c11.44 19.65 22.88 39.3 34.32 58.94 11.71 20.12 23.43 40.24 35.14 60.36 13.68-23.97 27.45-48.15 35.86-74.43 4.31-13.45 6.5-29.98-3.32-40.14-8.55-8.83-22.33-8.89-34.51-10.53-22.14-2.98-43.22-13.3-59.15-28.96-6.28 15.94-6.7 34.1-8.34 34.76z"/>
        <path class="prefix__st5" d="M411 537c9.78 8.74 17.22 18.26 27 27-.83-33.76 13.58-74.88 35.21-100.82a80.007 80.007 0 0 0-17.98-21.11C444.08 474.2 432.57 501.71 411 528c5.77 5.08 12.44 12.65 18 18 .58-.38-5.34 5.77-18-9z"/>
        <path class="prefix__st5" d="M328.38 633.7c27.19 11.7 54.39 23.4 80.88 33.89 24.68-58.73 12.1-131.29-30.9-178.28l3.16 73.67c-16.08-3.79-32.69-5.3-49.18-4.48 6.77 24.85 6.43 51.61-3.96 75.2z"/>
        <path class="prefix__st5" d="M258.48 655.06c-5.83 32.32-11.49 66.69.76 97.16 13.27 33.02 44.68 54.55 73.94 74.94 27.01-46.14 41.24-99.67 40.71-153.13-16.16-10.5-29.08-19.63-34.89-38.04-3.8.03 3.8 8.97 0 9l-27.67 53.81c-21.11-10.55-39.8-25.88-52.85-43.74z"/>
        <path class="prefix__st5" d="M477.22 609.56c13.03 36.31 17.99 75.49 14.38 112.54-42.7-2.99-84.45-18.44-118.4-44.7l-29.41-34.73a279.13 279.13 0 0 0 71.71 22.98c7.43-45.05 4.39-91.8-8.81-135.52 13.81 11.96 28.32 25.02 32.96 42.69 4.09 15.56-.04 33.09 7.31 47.4 9.78-9.24 23.26-14.47 36.72-14.24-3.37 3.81-5.05 9.04-6.46 3.58zM505.92 596.22c12.22 9.04 24.43 18.08 36.65 27.13 2.55 1.89 5.28 3.84 8.44 4.1 6.92.56 11.55-6.81 14.23-13.22 12.22-29.11 19.53-60.27 21.55-91.78-6.47 18.25-22.3 31.43-38.35 42.26-16.04 10.83-33.36 20.58-42.52 31.51zM593.21 507.97c28.74 48.03 77.15 83.89 131.48 97.38 11.65-48.73 8.91-100.81-7.78-148.05-37.37-4.79-65.08-26.95-89.9-55.3-1.62 6.21-10.93 15.71-13.06 21.84-5.51-3.94-12.14-5.91-18.64-7.81 13.07 32.34 12.62 69.92-2.1 91.94z"/>
        <path class="prefix__st5" d="M753.71 464.35c12.1-33.2 8.18-71.83-11.52-100.3-52.19-12.33-98.55-47.49-124.5-94.42-8.61 4.84-5.5 17.73-1.93 26.93 13.42 34.55 16.91 72.89 9.95 109.29 33.27 36.9 83.2 58.17 128 58.5z"/>
        <path class="prefix__st5" d="M789 348c-1.48-34.25-5.09-51.81-20.54-84.72l-154.75-2.57c4.64 18 16.23 33.6 30.08 46 13.85 12.4 29.97 21.95 45.97 31.42 25.28 14.96 93.06 26.93 93.06 26.93L789 348z"/>
        <path class="prefix__st5" d="M790.47 341.44c4.45-.37 8.92.17 12.76 2.47 30.09 18.02 65.41 27.29 100.48 26.13 40.19-1.33 79.81-16.36 109.9-42.46-18.48-25.16-38.37-51.47-67.17-63.51-13.13-5.49-27.4-7.65-41.58-8.85-46.97-3.95-94.13 2.26-140.86 8.46 20.2 18.63 23.43 75.15 23.43 75.15.26 1.85 1.77 2.71 3.04 2.61z"/>
        <path class="prefix__st5" d="M907.41 368.96c7.27 30.62 10.68 62.15 9.99 92.96-33.37-5.83-67.01-13.35-96.75-29.58-29.74-16.22-58.54-33.71-67.65-66.34 9.65 3.52 22.33-1.54 31.98 1.98 1.07-9.99 2.13-19.99 3.2-29.98 35.7 25.46 80.7 37.58 119.23 30.96z"/>
    </g>
    <g id="prefix__Layer_11">
        <path class="prefix__st6" d="M980.81 598.4c20.74-48.62 41.48-97.24 62.23-145.86.53 46.1 8.85 92.1 24.51 135.46-28.85.4-57.69.81-86.74 10.4zM1138.05 624.44a972.033 972.033 0 0 1 135.26-87.82 805.278 805.278 0 0 0-80.48 153.71c-17.75-23.99-35.49-47.98-54.78-65.89zM1275.56 821.18a2172.29 2172.29 0 0 1 121.54-171.66c-18.44 81.08-19.98 165.96-4.48 247.65-39.16-28.69-78.32-57.38-117.06-75.99zM1502.3 930.58c29.6-79.27 59.2-158.54 88.79-237.8 1.66 91.74 16.22 183.23 43.13 270.95-44.16-19.36-91.43-31.59-131.92-33.15zM1713.94 978.12c27.32-86.7 54.65-173.4 81.97-260.11 38.46 98.13 42.6 205.82 46.27 311.15-43.56-23.36-90.36-40.68-128.24-51.04z"/>
    </g>
    <g id="prefix__Layer_10">
        <path class="prefix__st7" d="M1841 1020.58c-54.7-52.69-132.32-73.65-207.43-84.88-75.11-11.23-152.33-14.95-223.54-41.35-75.92-28.14-142-82.11-184.74-150.88-25.72-41.38-43.8-88.62-79-122.31-36.18-34.63-88.98-51.03-138.41-43-38.06 6.18-75.92 29.12-88.45 65.59-12.43 36.18 2.14 76.05-2.25 114.05-4.15 35.91-24.75 67.42-38.99 100.64-14.24 33.22-21.45 74.19-.5 103.64 25.44 35.76 82.37 35.52 117.95 9.83 35.58-25.69 53.95-68.76 66.59-110.78 5.32-17.69 10.27-36.25 22.36-50.22s33.88-21.6 49.46-11.67c16.11 10.26 17.99 32.78 16.82 51.85-6.07 99.09-47.36 199.14-20.89 294.82 20.46 73.97 79.57 132.4 146.88 169.27s142.97 55.09 217.62 72.93c100.38 23.99 204.51 48.09 305.82 28.37 11.35-2.21 23.23-5.31 31.34-13.54 11.6-11.77 12.13-30.18 11.94-46.7-1.32-113.53-2.63-227.04-2.58-335.66z"/>
        <path class="prefix__st7" d="M1097.92 799.95c15.24-27.95 18.6-62.13 9.11-92.51M1159.78 1114.73c45.99 121.94 41.05 262.21-13.42 380.6-8.85 19.24-18.23 44.09-3.67 59.46 6.47 6.83 16.07 9.49 25.1 12.16 56.95 16.82 110.46 45.19 156.34 82.89 33.66-86.44 16.08-183.3-1.35-274.41s-33.68-188.53 2.24-274.06M1666.47 1119.98c-75.79 14.77-135.25 89.24-132.87 166.42 2.37 77.18 66.29 147.85 142.85 157.94"/>
    </g>
    <g id="prefix__Layer_12">
        <path class="prefix__st8" d="M981.45 679.2a149.435 149.435 0 0 0-26.03 55.27l26.7-.18c.06-17.24.12-34.47-.67-55.09zM908.28 988.72c3.26-17.46 15.04-32.08 27.76-44.46 12.73-12.39 26.92-23.51 37.25-37.96s16.39-33.45 10.31-50.14M882.76 927.13c2.22-4.93 4.44-9.87 6.66-14.8-1.85 4.8-3.7 9.6-5.54 14.41 2.91-7.66 5.81-15.31-1.12.39z"/>
    </g>
    <g id="prefix__Layer_13">
        <path class="prefix__st9" d="m978 681 1.14 7.31M978.57 702.61c.61-2.65 1.23-5.3 1.84-7.95M969.52 699.24c1.44-1.69 2.87-3.38 4.31-5.07"/>
    </g>
    <path d="M1315.14 1547.11c-3.1-31.58-30.51-59.05-62.08-62.22s-63.9 18.31-73.21 48.64c13.99-30.07-6.12-70.62-38.53-77.68-32.4-7.06-67.56 21.45-67.34 54.62 26.53-35.29 19.72-88.83-9.37-122.04-29.09-33.21-75.71-47.41-119.78-44.89-37.16 2.12-74.81 15.99-99.66 43.7s-34.23 70.43-17.36 103.61c-5-34.3-39.84-61.4-74.32-57.79-34.48 3.61-62.96 37.32-60.76 71.92-2.02-29.63-33.86-51.44-63.42-48.56s-54.52 25.48-67.16 52.36c-12.64 26.87-14.76 57.47-13.92 87.16 2.75 96.91 31.05 236.39 127.46 246.55 74.74 7.87 149.16 2.34 221.32-.48 122.15-4.76 246.85-4.69 369 0 39.15 1.5 95.15 15.15 126-9 30.16-23.6 15.5-50.72 9.67-88.57-5.83-37.85-25.01-72.17-44.59-105.08s-39.39-66.11-41.95-92.25z" fill="#5bd9d9" stroke="#32b8b8" stroke-width="13" stroke-miterlimit="10" id="prefix__Layer_7"/>
    <path d="M1048.89 1843.82c17.82-21.5 29.49-49.64 25.39-77.26s-26.98-53.14-54.87-54.47c-27.9-1.33-54.74 27.54-46.66 54.28 12.38-30.91 21.95-64.44 16.19-97.23-5.76-32.79-30.69-64.17-63.79-67.8s-67.28 30.7-56.15 62.08c1.87-32.98-6.89-68.1-30.71-90.98-23.82-22.88-64.55-29.22-90.3-8.54-18.51 14.87-25.86 39.28-32.23 62.16-10.8 38.77-21.59 77.54-32.39 116.31-3.67 13.17-7.31 27.41-2.54 40.22 6.73 18.1 27.24 26.39 45.74 31.89 103.94 30.92 214.83 38.32 322.32 29.34z" fill="#5674b0" stroke="#456199" stroke-width="13" stroke-miterlimit="10" id="prefix__Layer_8"/>
    <g id="prefix__Layer_6">
        <path class="prefix__st12" d="M253.35 1160.08c29.34-14.48 65.2-16.61 94.88-2.84 29.68 13.77 51.77 44.13 52.84 76.83s-20.66 65.64-52.03 74.94c7.44-8.43 21.22-8.69 31.02-3.17s16.27 15.45 21.25 25.53c13.63 27.62 18.74 59.39 7.52 88.57 9.66-46.78 53.79-84.1 101.53-85.86 47.74-1.76 94.49 32.22 107.56 78.17 13.07 45.94-8.8 99.45-50.31 123.08 57.69-10.57 120.47 16.02 153.03 64.8s33.03 116.96 1.14 166.18c20.35-53.65 88.92-82.97 141.77-60.62 52.85 22.36 79.56 91.98 55.23 143.95-79.87-16.23-162.21-13.68-243.68-11.06-139.43 4.48-278.87 8.95-418.3 13.43-27.96-232.75-31.43-468.42-3.45-691.93zM1850.9 1122.18c-39.73-34.58-100.25-43.04-147.94-20.68s-79.89 74.31-78.7 126.96 35.68 103.1 84.32 123.3c-37.8-32.54-102.11-27.07-133.86 11.41-31.75 38.47-24.94 102.65 14.19 133.59.18-24.12-25.83-43.75-49.59-39.61-23.77 4.14-41.25 28.37-40.73 52.49s16.93 46.33 38.55 57.03c-23.06-51.57-80.83-85.33-137.08-80.1s-106.81 49.06-119.96 103.99c-5.5 22.95-4.74 47.96 5.55 69.2 10.29 21.24 30.96 38.01 54.45 40.35-18.57-22.68-55.08-24.78-79.97-9.29-24.89 15.49-38.86 44.53-42.77 73.58s.97 58.51 6.39 87.31l574.66-4.11c8.99-.06 18.81-.43 25.62-6.3 8.23-7.11 8.91-19.41 8.96-30.28 1.17-233.17 2.34-466.34 17.91-688.84z"/>
    </g>
    <g id="prefix__Layer_9">
        <path class="prefix__st13" d="M1849.43 1580.97c-20.8-39.67-79.53-52.87-115.3-25.91s-39.27 87.05-6.86 117.98c-21.9-43.2-83.82-59.85-124.44-33.47-40.62 26.38-50.58 89.72-20.02 127.3.35-32.83-40.14-58.38-69.62-43.93-29.48 14.45-34.09 62.11-7.93 81.94-14.26-6.34-29.7-12.82-44.98-9.67-15.28 3.15-28.32 20.73-20.87 34.44 6.47 11.89 22.68 13.29 36.22 13.2 120.98-.8 241.97-1.59 362.95-2.39 7.24-94.24 4.33-189.27 10.85-259.49zM242.51 1414.54c20.41-6.21 44.4 2.26 56.39 19.9s11.03 43.06-2.25 59.75c8.66-37.23 60.15-49.87 93.97-32.07s52.79 54.49 67.31 89.84c20.76 50.54 35.87 111.32 6.37 157.3 16.23-31.17 62.49-37.82 91.57-18.1 29.09 19.72 41.17 58.2 37.19 93.12-1.8 15.79-7.15 32.31-19.8 41.94-13.15 10.01-31 10.4-47.52 10.37-84.18-.17-168.36-.34-252.53-.52-7.58-.02-15.93-.32-21.52-5.44-6.41-5.88-6.69-15.72-6.5-24.42 2.77-129.13 5.53-258.26-2.68-391.67z"/>
    </g>
    <path fill="none" stroke="#000" stroke-width="37" stroke-miterlimit="10" d="M249 258h1593v1584H249z" id="prefix__Layer_3"/>
</svg>
